<?xml version="1.0" encoding="UTF-8"?>
<svg xmlns="http://www.w3.org/2000/svg" xmlns:xlink="http://www.w3.org/1999/xlink" viewBox="0 0 96 96" width="96px" height="96px">
<g id="surface28147887">
<path style=" stroke:none;fill-rule:nonzero;fill:rgb(100%,100%,100%);fill-opacity:1;" d="M 43.558594 12.027344 C 42.71875 12 42 12.6875 42 13.558594 L 42 19.5 C 42 20.339844 42.660156 21 43.5 21 L 43.5 21.058594 C 62.191406 21.777344 77.222656 36.808594 77.941406 55.5 L 78 55.5 C 78 56.339844 78.660156 57 79.5 57 L 85.441406 57 C 86.3125 57 87 56.28125 86.972656 55.441406 C 86.160156 31.863281 67.136719 12.839844 43.558594 12.027344 Z M 43.558594 27.027344 C 42.71875 27 42 27.71875 42 28.558594 L 42 34.5 C 42 35.339844 42.660156 36 43.5 36 L 43.5 36.085938 C 53.910156 36.777344 62.222656 45.089844 62.914062 55.5 L 63 55.5 C 63 56.339844 63.660156 57 64.5 57 L 70.441406 57 C 71.28125 57 72 56.28125 71.972656 55.441406 C 71.160156 40.140625 58.859375 27.839844 43.558594 27.027344 Z M 16.5 30 C 15.660156 30 15 30.660156 15 31.5 L 15 64.5 C 15 75.238281 23.761719 84 34.5 84 C 45.238281 84 54 75.238281 54 64.5 C 54 53.761719 45.238281 45 34.5 45 C 33.660156 45 33 45.660156 33 46.5 L 33 55.5 C 33 56.339844 33.660156 57 34.5 57 C 38.640625 57 42 60.359375 42 64.5 C 42 68.640625 38.640625 72 34.5 72 C 30.359375 72 27 68.640625 27 64.5 L 27 31.5 C 27 30.660156 26.339844 30 25.5 30 Z M 16.5 30 "/>
</g>
</svg>
