<svg xmlns="http://www.w3.org/2000/svg" viewBox="0 0 185 185"><defs><style>.cls-1{fill:none;stroke:#fff;stroke-miterlimit:10;stroke-width:6px;}.cls-2,.cls-3{fill:#fff;}.cls-3{font-size:40px;font-family:HarlowSolid, Harlow Solid Italic;}</style></defs><g id="레이어_2" data-name="레이어 2"><g id="레이어_1-2" data-name="레이어 1"><circle class="cls-1" cx="92.5" cy="92.5" r="89.5"/><path class="cls-1" d="M116.88,73A20,20,0,0,1,99,44.1c-.69-.06-1.4-.1-2.11-.1a25,25,0,1,0,24.77,28.41A20.23,20.23,0,0,1,116.88,73Z"/><polygon class="cls-2" points="57.31 48.43 59.88 42 62.45 48.43 68.88 51 62.45 53.57 59.88 60 57.31 53.57 50.88 51 57.31 48.43"/><polygon class="cls-2" points="72.31 30.43 74.88 24 77.45 30.43 83.88 33 77.45 35.57 74.88 42 72.31 35.57 65.88 33 72.31 30.43"/><text class="cls-3" transform="translate(33.79 135.73)">Fancy</text></g></g></svg>