<svg xmlns="http://www.w3.org/2000/svg" viewBox="0 0 172.37 172.37"><defs><style>.cls-1,.cls-2{fill:none;}.cls-2{stroke:#fff;stroke-miterlimit:10;stroke-width:6px;}.cls-3{fill:#fff;}</style></defs><g id="레이어_2" data-name="레이어 2"><g id="레이어_1-2" data-name="레이어 1"><rect class="cls-1" width="172.37" height="172.37"/><path class="cls-2" d="M122.52,73.31A25.34,25.34,0,0,1,99.83,36.65c-.88-.07-1.77-.12-2.67-.12a31.71,31.71,0,1,0,31.4,36A25.55,25.55,0,0,1,122.52,73.31Z"/><polygon class="cls-3" points="46.97 42.15 50.23 34 53.49 42.15 61.65 45.41 53.49 48.67 50.23 56.83 46.97 48.67 38.82 45.41 46.97 42.15"/><polygon class="cls-3" points="65.99 19.32 69.25 11.17 72.52 19.32 80.67 22.58 72.52 25.84 69.25 34 65.99 25.84 57.84 22.58 65.99 19.32"/><path class="cls-3" d="M54.85,125.38h3.63c1.75,0,2.63.75,2.63,2.25A3.1,3.1,0,0,1,60,130a3.76,3.76,0,0,1-2.64,1H52.58L48,142.21q-4.74,11.63-14,11.62a11,11,0,0,1-8-3.13,10.58,10.58,0,0,1-3.18-7.88,14.38,14.38,0,0,1,1.88-7.08A17.79,17.79,0,0,1,30,129.93a23.9,23.9,0,0,1,6.71-3.24,25.24,25.24,0,0,1,7.56-1.19l3.31-.1,1,0,4.5-11.32.26-.66a3.51,3.51,0,0,1,1.37-1.93,6,6,0,0,1,2.8-.48h12c2.17,0,3.26.76,3.26,2.29a3,3,0,0,1-1.08,2.34,3.76,3.76,0,0,1-2.62,1H58.44ZM46.3,131H45q-6.95,0-11.09,3.16-4.63,3.54-4.64,8a5.71,5.71,0,0,0,1.47,4,4.7,4.7,0,0,0,3.64,1.62q5.07,0,8.32-8Z"/><path class="cls-3" d="M81,137.87h2.58c2,0,3,.69,3,2.06a2.66,2.66,0,0,1-1,2.24,4.7,4.7,0,0,1-2.91.81h-3a2.73,2.73,0,0,1-2.74-1.57,5.21,5.21,0,0,1-3.4,1.57H70.79a5.2,5.2,0,0,1-4.16-1.84,7.11,7.11,0,0,1-1.58-4.82,11.9,11.9,0,0,1,3.1-8,9.19,9.19,0,0,1,7-3.55,4.87,4.87,0,0,1,4.38,2.09,3.56,3.56,0,0,1,3.07-1.76,2.43,2.43,0,0,1,1.73.66,2.12,2.12,0,0,1,.69,1.61,4.28,4.28,0,0,1-.38,1.57l-.26.64Zm-8.51.12h.59a2.48,2.48,0,0,0,2.55-1.57l1.64-4.06a3.61,3.61,0,0,0,.33-1.33,1.37,1.37,0,0,0-.62-1.1,2.35,2.35,0,0,0-1.49-.47,4.44,4.44,0,0,0-3.33,2,6.51,6.51,0,0,0-1.61,4.12C70.58,137.18,71.22,138,72.52,138Z"/><path class="cls-3" d="M104.82,137.87h2.81c2,0,3,.7,3,2.09a2.61,2.61,0,0,1-1.06,2.22,4.71,4.71,0,0,1-2.9.8h-4.9a3.46,3.46,0,0,1-2.4-.87,2.79,2.79,0,0,1-1-2.18,7.09,7.09,0,0,1,.66-2.39l2.06-5.11a3.91,3.91,0,0,0,.35-1.29,1.13,1.13,0,0,0-.45-1,1.89,1.89,0,0,0-1.23-.4c-1.61,0-2.91,1.22-3.89,3.64l-2.77,6.79q-1.25,3.1-3.7,3.1a2.47,2.47,0,0,1-1.71-.61,1.92,1.92,0,0,1-.71-1.5,4.28,4.28,0,0,1,.38-1.57l.26-.63,4.73-11.68a3.19,3.19,0,0,1,3.12-2.27,2.67,2.67,0,0,1,2.58,1.59,8,8,0,0,1,4.78-1.92,5.24,5.24,0,0,1,3.63,1.27,4.1,4.1,0,0,1,1.43,3.21,6.32,6.32,0,0,1-.52,2.37Z"/><path class="cls-3" d="M124.9,143h-6.79a6.09,6.09,0,0,1-4.77-2.06,7.73,7.73,0,0,1-1.84-5.35,10.79,10.79,0,0,1,3-7.61,9.42,9.42,0,0,1,7.1-3.24,6.49,6.49,0,0,1,4.5,1.55,5.13,5.13,0,0,1,1.74,4,4.48,4.48,0,0,1-.87,2.85,2.71,2.71,0,0,1-2.23,1.11c-1.43,0-2.15-.67-2.15-2v-.52c0-.17,0-.34,0-.49A1.44,1.44,0,0,0,121,129.6a3.54,3.54,0,0,0-2.77,1.61,5.75,5.75,0,0,0-1.26,3.61,2.64,2.64,0,0,0,1,2.36,6.43,6.43,0,0,0,3.46.69h4.43c2,0,3,.7,3,2.09a2.64,2.64,0,0,1-1.07,2.21A4.69,4.69,0,0,1,124.9,143Z"/><path class="cls-3" d="M143.12,143.94h2.71c2,0,3,.7,3,2.09a2.64,2.64,0,0,1-1,2.22,4.74,4.74,0,0,1-2.92.8h-3.8a36.72,36.72,0,0,1-2.46,5.34q-3.09,5.87-9,5.86a8.53,8.53,0,0,1-6-2.25,7.27,7.27,0,0,1-2.44-5.57,7.67,7.67,0,0,1,1.33-4.33,8.32,8.32,0,0,1,3.48-3,18.06,18.06,0,0,1,7.33-1.15h3.82l.68-1.69a8.21,8.21,0,0,1-3.19.73,6.21,6.21,0,0,1-4.06-1.28,4.07,4.07,0,0,1-1.56-3.31,11.25,11.25,0,0,1,1-3.73l2.55-6.3.26-.66q1.13-2.65,3.49-2.65a2.39,2.39,0,0,1,1.72.66,2.15,2.15,0,0,1,.7,1.66,7.08,7.08,0,0,1-.61,2.2l-2.3,5.61a7.47,7.47,0,0,0-.56,1.75c-.05.77.43,1.15,1.45,1.15a4.48,4.48,0,0,0,2.2-.63A3,3,0,0,0,140.3,136l3.14-7.66.24-.66a3.67,3.67,0,0,1,3.49-2.65,2.35,2.35,0,0,1,1.72.67,2.19,2.19,0,0,1,.69,1.65,4.24,4.24,0,0,1-.35,1.57l-.28.63Zm-7.67,5.11h-3.28q-5.38,0-5.39,3.38a2.6,2.6,0,0,0,.74,1.92,2.71,2.71,0,0,0,2,.72,4.14,4.14,0,0,0,3-1.33A17.65,17.65,0,0,0,135.45,149.05Z"/></g></g></svg>