<?xml version="1.0" encoding="UTF-8"?>
<svg xmlns="http://www.w3.org/2000/svg" xmlns:xlink="http://www.w3.org/1999/xlink" viewBox="0 0 90 90" width="90px" height="90px">
<g id="surface28124670">
<path style=" stroke:none;fill-rule:nonzero;fill:rgb(100%,100%,100%);fill-opacity:1;" d="M 29.996094 9 C 18.417969 9 9 18.425781 9 30.003906 L 9 60.003906 C 9 71.582031 18.425781 81 30.003906 81 L 60.003906 81 C 71.582031 81 81 71.574219 81 59.996094 L 81 29.996094 C 81 18.417969 71.574219 9 59.996094 9 Z M 66 21 C 67.65625 21 69 22.34375 69 24 C 69 25.65625 67.65625 27 66 27 C 64.34375 27 63 25.65625 63 24 C 63 22.34375 64.34375 21 66 21 Z M 45 27 C 54.925781 27 63 35.074219 63 45 C 63 54.925781 54.925781 63 45 63 C 35.074219 63 27 54.925781 27 45 C 27 35.074219 35.074219 27 45 27 Z M 45 33 C 38.371094 33 33 38.371094 33 45 C 33 51.628906 38.371094 57 45 57 C 51.628906 57 57 51.628906 57 45 C 57 38.371094 51.628906 33 45 33 Z M 45 33 "/>
</g>
</svg>
