<?xml version="1.0" encoding="utf-8"?>
<!-- Generator: Adobe Illustrator 26.0.3, SVG Export Plug-In . SVG Version: 6.00 Build 0)  -->
<svg version="1.1" id="레이어_1" xmlns="http://www.w3.org/2000/svg" xmlns:xlink="http://www.w3.org/1999/xlink" x="0px"
	 y="0px" viewBox="0 0 2500 2500" style="enable-background:new 0 0 2500 2500;" xml:space="preserve">
<style type="text/css">
	.st0{fill-rule:evenodd;clip-rule:evenodd;}
</style>
<path class="st0" d="M551.4,530.6c69.1,56.2,95.1,51.9,224.9,43.2l1224.1-73.5c26,0,4.4-25.9-4.3-30.2l-203.3-147
	c-39-30.2-90.9-64.9-190.3-56.2L417.3,353.4c-43.2,4.3-51.9,25.9-34.6,43.2L551.4,530.6z M624.9,815.9v1288
	c0,69.2,34.6,95.1,112.4,90.8l1345.3-77.8c77.9-4.3,86.6-51.9,86.6-108.1V729.4c0-56.1-21.6-86.4-69.3-82.1L694.1,729.4
	C642.2,733.8,624.9,759.7,624.9,815.9L624.9,815.9z M1953,885c8.6,38.9,0,77.8-39,82.2l-64.8,12.9V1931
	c-56.3,30.2-108.2,47.5-151.4,47.5c-69.2,0-86.6-21.6-138.4-86.4l-424-665.6v644l134.2,30.3c0,0,0,77.8-108.2,77.8l-298.4,17.3
	c-8.7-17.3,0-60.5,30.3-69.1l77.9-21.6v-851.5l-108.1-8.7c-8.7-38.9,12.9-95.1,73.5-99.4l320.1-21.6l441.2,674.3v-596.5l-112.5-12.9
	c-8.6-47.6,25.9-82.2,69.2-86.5L1953,885z M317.8,236.7l1232.9-90.8c151.4-13,190.4-4.3,285.5,64.8l393.6,276.6
	c64.9,47.6,86.6,60.5,86.6,112.4v1517.1c0,95.1-34.6,151.3-155.7,159.9l-1431.8,86.5c-90.9,4.3-134.2-8.6-181.8-69.2l-289.8-376
	c-51.9-69.2-73.5-121-73.5-181.6V388C183.7,310.2,218.3,245.3,317.8,236.7z"/>
</svg>
